<svg xmlns="http://www.w3.org/2000/svg" xmlns:xlink="http://www.w3.org/1999/xlink" viewBox="-1000 -1000 2000 2000">
<rect fill="rgb(28,53,63)" x="-50%" y="-50%" width="100%" height="100%"/>
<path class="main_path" stroke="rgb(245,194,102)" stroke-width="20" stroke-linecap="round" fill="none" d="M332.1238414520892 37.421369627325255 A334.2253804929802 334.2253804929802 0 0 1 332.1238414520892 37.421369627325255 A334.2253804929802 334.2253804929802 0 0 1 325.8456524021968 74.37214381920249 A334.2253804929802 334.2253804929802 0 0 1 315.4697652132955 110.38764515083028 A334.2253804929802 334.2253804929802 0 0 1 301.12666268701565 145.01495779628283 A334.2253804929802 334.2253804929802 0 0 1 282.99671765968725 177.8186232078087 A334.2253804929802 334.2253804929802 0 0 1 261.30792470926804 208.38611625972803 A334.2253804929802 334.2253804929802 0 0 1 236.33303299124037 236.33303299124032 A334.2253804929802 334.2253804929802 0 0 1 208.38611625972808 261.30792470926804 A334.2253804929802 334.2253804929802 0 0 1 177.81862320780877 282.99671765968725 A334.2253804929802 334.2253804929802 0 0 1 145.01495779628283 301.12666268701565 A334.2253804929802 334.2253804929802 0 0 1 110.38764515083031 315.4697652132955 A334.2253804929802 334.2253804929802 0 0 1 74.37214381920252 325.8456524021968 A334.2253804929802 334.2253804929802 0 0 1 37.42136962732528 332.1238414520892 A334.2253804929802 334.2253804929802 0 0 1 0.000000000000020465402120726722 334.2253804929802 A334.2253804929802 334.2253804929802 0 0 1 -37.42136962732524 332.1238414520892 A334.2253804929802 334.2253804929802 0 0 1 -74.37214381920248 325.8456524021968 A334.2253804929802 334.2253804929802 0 0 1 -110.38764515083028 315.4697652132955 A334.2253804929802 334.2253804929802 0 0 1 -145.0149577962828 301.12666268701565 A334.2253804929802 334.2253804929802 0 0 1 -177.81862320780868 282.99671765968725 A334.2253804929802 334.2253804929802 0 0 1 -208.386116259728 261.3079247092681 A334.2253804929802 334.2253804929802 0 0 1 -236.33303299124032 236.33303299124037 A334.2253804929802 334.2253804929802 0 0 1 -261.30792470926804 208.38611625972808 A334.2253804929802 334.2253804929802 0 0 1 -282.99671765968725 177.81862320780877 A334.2253804929802 334.2253804929802 0 0 1 -301.1266626870156 145.01495779628286 A334.2253804929802 334.2253804929802 0 0 1 -315.4697652132955 110.38764515083032 A334.2253804929802 334.2253804929802 0 0 1 -325.8456524021968 74.37214381920253 A334.2253804929802 334.2253804929802 0 0 1 -332.1238414520892 37.4213696273253 A334.2253804929802 334.2253804929802 0 0 1 -334.2253804929802 0.000000000000040930804241453444 A334.2253804929802 334.2253804929802 0 0 1 -332.1238414520892 -37.42136962732522 A334.2253804929802 334.2253804929802 0 0 1 -325.8456524021968 -74.37214381920246 A334.2253804929802 334.2253804929802 0 0 1 -315.4697652132955 -110.38764515083027 A334.2253804929802 334.2253804929802 0 0 1 -301.12666268701565 -145.01495779628277 A334.2253804929802 334.2253804929802 0 0 1 -282.99671765968725 -177.81862320780868 A334.2253804929802 334.2253804929802 0 0 1 -261.3079247092681 -208.386116259728 A334.2253804929802 334.2253804929802 0 0 1 -236.3330329912404 -236.33303299124032 A334.2253804929802 334.2253804929802 0 0 1 -227.3309920824376 -245.00454078341502 A25 25 0 0 0 -258.58568409676457 -284.1875912054988 A384.2253804929802 384.2253804929802 0 0 0 -271.6883720505678 -271.6883720505677 A384.2253804929802 384.2253804929802 0 0 0 -300.39949883266956 -239.56060635266468 A384.2253804929802 384.2253804929802 0 0 0 -325.3329276211015 -204.42022703357551 A384.2253804929802 384.2253804929802 0 0 0 -346.1751060821366 -166.70914475216068 A384.2253804929802 384.2253804929802 0 0 0 -362.66393172871386 -126.90159824858861 A384.2253804929802 384.2253804929802 0 0 0 -374.592048011288 -85.49819051701817 A384.2253804929802 384.2253804929802 0 0 0 -381.8094519467513 -43.0195934324906 A384.2253804929802 384.2253804929802 0 0 0 -384.2253804929802 0.00000000000004705403823719021 A384.2253804929802 384.2253804929802 0 0 0 -381.8094519467513 43.0195934324907 A384.2253804929802 384.2253804929802 0 0 0 -374.592048011288 85.49819051701826 A384.2253804929802 384.2253804929802 0 0 0 -362.66393172871386 126.90159824858868 A384.2253804929802 384.2253804929802 0 0 0 -346.17510608213655 166.70914475216077 A384.2253804929802 384.2253804929802 0 0 0 -325.3329276211014 204.4202270335756 A384.2253804929802 384.2253804929802 0 0 0 -300.3994988326695 239.56060635266476 A384.2253804929802 384.2253804929802 0 0 0 -271.6883720505677 271.68837205056775 A384.2253804929802 384.2253804929802 0 0 0 -239.56060635266468 300.39949883266956 A384.2253804929802 384.2253804929802 0 0 0 -204.42022703357551 325.3329276211015 A384.2253804929802 384.2253804929802 0 0 0 -166.7091447521607 346.1751060821366 A384.2253804929802 384.2253804929802 0 0 0 -126.90159824858864 362.66393172871386 A384.2253804929802 384.2253804929802 0 0 0 -85.4981905170182 374.592048011288 A384.2253804929802 384.2253804929802 0 0 0 -43.01959343249063 381.8094519467513 A384.2253804929802 384.2253804929802 0 0 0 0.000000000000023527019118595104 384.2253804929802 A384.2253804929802 384.2253804929802 0 0 0 43.01959343249067 381.8094519467513 A384.2253804929802 384.2253804929802 0 0 0 85.49819051701824 374.592048011288 A384.2253804929802 384.2253804929802 0 0 0 126.90159824858866 362.66393172871386 A384.2253804929802 384.2253804929802 0 0 0 166.70914475216074 346.1751060821366 A384.2253804929802 384.2253804929802 0 0 0 204.4202270335756 325.3329276211014 A384.2253804929802 384.2253804929802 0 0 0 239.56060635266476 300.3994988326695 A384.2253804929802 384.2253804929802 0 0 0 271.68837205056775 271.6883720505677 A384.2253804929802 384.2253804929802 0 0 0 300.3994988326695 239.5606063526647 A384.2253804929802 384.2253804929802 0 0 0 325.3329276211014 204.42022703357554 A384.2253804929802 384.2253804929802 0 0 0 346.1751060821366 166.70914475216074 A384.2253804929802 384.2253804929802 0 0 0 362.66393172871386 126.90159824858864 A384.2253804929802 384.2253804929802 0 0 0 374.592048011288 85.49819051701822 A384.2253804929802 384.2253804929802 0 0 0 381.8094519467513 43.01959343249065 A384.2253804929802 384.2253804929802 0 0 0 384.2253804929802 0 A384.2253804929802 384.2253804929802 0 0 0 383.79866361306324 -18.103282127894122 A25 25 0 0 0 356.96664669942027 -40.22048152990796 L356.96664669942027 -40.22048152990796 A25 25 0 0 1 328.3986533760414 -62.1363776420866 A334.2253804929802 334.2253804929802 0 0 0 325.8456524021968 -74.37214381920258 A334.2253804929802 334.2253804929802 0 0 0 315.46976521329543 -110.38764515083037 A334.2253804929802 334.2253804929802 0 0 0 301.1266626870156 -145.01495779628289 A334.2253804929802 334.2253804929802 0 0 0 282.9967176596872 -177.8186232078088 A334.2253804929802 334.2253804929802 0 0 0 261.30792470926804 -208.3861162597281 A334.2253804929802 334.2253804929802 0 0 0 236.33303299124032 -236.3330329912404 A334.2253804929802 334.2253804929802 0 0 0 208.386116259728 -261.3079247092681 A334.2253804929802 334.2253804929802 0 0 0 177.81862320780866 -282.9967176596873 A334.2253804929802 334.2253804929802 0 0 0 145.01495779628277 -301.1266626870157 A334.2253804929802 334.2253804929802 0 0 0 110.38764515083025 -315.4697652132955 A334.2253804929802 334.2253804929802 0 0 0 74.37214381920244 -325.8456524021968 A334.2253804929802 334.2253804929802 0 0 0 37.4213696273252 -332.1238414520892 A334.2253804929802 334.2253804929802 0 0 0 24.976693963198702 -333.2908185419246 A25 25 0 0 1 24.982363810955576 -383.4123426722104 A384.2253804929802 384.2253804929802 0 0 1 43.01959343249058 -381.8094519467513 A384.2253804929802 384.2253804929802 0 0 1 85.49819051701814 -374.592048011288 A384.2253804929802 384.2253804929802 0 0 1 126.9015982485886 -362.66393172871386 A384.2253804929802 384.2253804929802 0 0 1 166.70914475216065 -346.17510608213667 A384.2253804929802 384.2253804929802 0 0 1 204.42022703357546 -325.33292762110153 A384.2253804929802 384.2253804929802 0 0 1 239.56060635266468 -300.39949883266956 A384.2253804929802 384.2253804929802 0 0 1 271.6883720505677 -271.6883720505678 A384.2253804929802 384.2253804929802 0 0 1 300.3994988326695 -239.5606063526648 A384.2253804929802 384.2253804929802 0 0 1 325.3329276211014 -204.42022703357563 A384.2253804929802 384.2253804929802 0 0 1 346.17510608213655 -166.7091447521608 A384.2253804929802 384.2253804929802 0 0 1 362.6639317287138 -126.90159824858873 A384.2253804929802 384.2253804929802 0 0 1 368.24029581850965 -109.67327637338052 A25 25 0 0 0 398.9652458158335 -91.06121386592618 L398.9652458158335 -91.06121386592618 A25 25 0 0 1 428.1969592750334 -72.10440438620117 A434.2253804929802 434.2253804929802 0 0 1 431.4950624414135 -48.617817237656155 A434.2253804929802 434.2253804929802 0 0 1 434.2253804929802 0 A434.2253804929802 434.2253804929802 0 0 1 431.4950624414135 48.61781723765604 A434.2253804929802 434.2253804929802 0 0 1 423.33844362037917 96.62423721483394 A434.2253804929802 434.2253804929802 0 0 1 409.85809824413224 143.415551346347 A434.2253804929802 434.2253804929802 0 0 1 391.22354947725756 188.40333170803862 A434.2253804929802 434.2253804929802 0 0 1 367.66913758251565 231.02183085934237 A434.2253804929802 434.2253804929802 0 0 1 339.49107295607104 270.73509644560136 A434.2253804929802 434.2253804929802 0 0 1 307.0437111098951 307.04371110989507 A434.2253804929802 434.2253804929802 0 0 1 270.7350964456014 339.491072956071 A434.2253804929802 434.2253804929802 0 0 1 231.02183085934243 367.66913758251565 A434.2253804929802 434.2253804929802 0 0 1 188.40333170803865 391.22354947725756 A434.2253804929802 434.2253804929802 0 0 1 143.41555134634703 409.85809824413224 A434.2253804929802 434.2253804929802 0 0 1 120.82387417840665 417.07705821921445 A25 25 0 0 0 131.9690808561914 465.8952466075861 A484.2253804929802 484.2253804929802 0 0 0 159.92950444410536 457.0522647595506 A484.2253804929802 484.2253804929802 0 0 0 210.09751866391656 436.2719928723785 A484.2253804929802 484.2253804929802 0 0 0 257.62343468510926 410.0053475439299 A484.2253804929802 484.2253804929802 0 0 0 301.9095865385381 378.58264707947245 A484.2253804929802 484.2253804929802 0 0 0 342.3990501692225 342.39905016922245 A484.2253804929802 484.2253804929802 0 0 0 378.5826470794725 301.90958653853806 A484.2253804929802 484.2253804929802 0 0 0 410.0053475439299 257.6234346851092 A484.2253804929802 484.2253804929802 0 0 0 436.2719928723785 210.09751866391653 A484.2253804929802 484.2253804929802 0 0 0 457.0522647595506 159.92950444410533 A484.2253804929802 484.2253804929802 0 0 0 472.08483922947033 107.75028391264965 A484.2253804929802 484.2253804929802 0 0 0 481.1806729360756 54.21604104282144 A484.2253804929802 484.2253804929802 0 0 0 484.2253804929802 0 A484.2253804929802 484.2253804929802 0 0 0 481.1806729360756 -54.21604104282156 A484.2253804929802 484.2253804929802 0 0 0 472.0848392294703 -107.75028391264978 A484.2253804929802 484.2253804929802 0 0 0 464.6965637318121 -136.1298011804078 A25 25 0 0 0 433.45518150184137 -151.67252789522627 L433.45518150184137 -151.67252789522627 A24.359986881410343 24.359986881410343 0 0 1 413.747771174818 -199.25042518597766 L458.79621456993897 -220.94461214185557 A25 25 0 0 1 491.63663734069104 -209.02194618557962 A534.2253804929802 534.2253804929802 0 0 1 504.2464312749689 -176.4434575418638 A534.2253804929802 534.2253804929802 0 0 1 520.8312348385615 -118.87633061046552 A534.2253804929802 534.2253804929802 0 0 1 530.8662834307378 -59.81426484798696 A534.2253804929802 534.2253804929802 0 0 1 534.2253804929802 0 A534.2253804929802 534.2253804929802 0 0 1 530.8662834307378 59.81426484798683 A534.2253804929802 534.2253804929802 0 0 1 520.8312348385615 118.87633061046537 A534.2253804929802 534.2253804929802 0 0 1 504.246431274969 176.4434575418637 A534.2253804929802 534.2253804929802 0 0 1 491.63663734069115 209.0219461855793 A25 25 0 0 0 536.7308116491993 230.73649697990842 A584.2253804929802 584.2253804929802 0 0 0 551.4405977903874 192.95741063962205 A584.2253804929802 584.2253804929802 0 0 0 569.5776304476527 130.0023773082811 A584.2253804929802 584.2253804929802 0 0 0 580.5518939253999 65.41248865315222 A584.2253804929802 584.2253804929802 0 0 0 584.2253804929802 0 A584.2253804929802 584.2253804929802 0 0 0 580.5518939253999 -65.41248865315237 A584.2253804929802 584.2253804929802 0 0 0 569.5776304476526 -130.00237730828124 A584.2253804929802 584.2253804929802 0 0 0 551.4405977903873 -192.95741063962217 A584.2253804929802 584.2253804929802 0 0 0 526.3688796626204 -253.48589257567244 A584.2253804929802 584.2253804929802 0 0 0 507.5216699594515 -289.3804584517363 A25 25 0 0 0 473.5096624860511 -297.5258404237596 L388.83724256322273 -244.3226327722259 A25 25 0 0 1 353.76648688173583 -251.7954602919363 A434.2253804929802 434.2253804929802 0 0 0 339.491072956071 -270.73509644560147 A434.2253804929802 434.2253804929802 0 0 0 307.04371110989507 -307.0437111098952 A434.2253804929802 434.2253804929802 0 0 0 270.73509644560136 -339.4910729560711 A434.2253804929802 434.2253804929802 0 0 0 231.0218308593423 -367.66913758251576 A434.2253804929802 434.2253804929802 0 0 0 188.40333170803856 -391.2235494772576 A434.2253804929802 434.2253804929802 0 0 0 143.41555134634694 -409.85809824413224 A434.2253804929802 434.2253804929802 0 0 0 96.62423721483385 -423.33844362037917 A434.2253804929802 434.2253804929802 0 0 0 48.61781723765596 -431.4950624414135 A434.2253804929802 434.2253804929802 0 0 0 -0.00000000000007976590834939046 -434.2253804929802 A434.2253804929802 434.2253804929802 0 0 0 -23.70817881138939 -433.5776785326023 A25 25 0 0 0 -45.81870533507342 -406.65225719408244 L-40.22048152990802 -356.96664669942027 A25 25 0 0 1 -62.13637764208675 -328.3986533760414 A334.2253804929802 334.2253804929802 0 0 0 -74.37214381920256 -325.8456524021968 A334.2253804929802 334.2253804929802 0 0 0 -110.38764515083034 -315.46976521329543 A334.2253804929802 334.2253804929802 0 0 0 -145.01495779628289 -301.1266626870156 A334.2253804929802 334.2253804929802 0 0 0 -156.17303507699702 -295.49380379377914 A25 25 0 0 1 -191.11942512069223 -304.1648226403943 L-217.72102894645906 -346.5010326018085 A25 25 0 0 0 -251.7954602919363 -353.76648688173583 A434.2253804929802 434.2253804929802 0 0 0 -270.73509644560147 -339.491072956071 A434.2253804929802 434.2253804929802 0 0 0 -307.0437111098952 -307.04371110989507 A434.2253804929802 434.2253804929802 0 0 0 -339.4910729560711 -270.73509644560136 A434.2253804929802 434.2253804929802 0 0 0 -367.6691375825157 -231.02183085934234 A434.2253804929802 434.2253804929802 0 0 0 -391.22354947725756 -188.4033317080386 A434.2253804929802 434.2253804929802 0 0 0 -409.85809824413224 -143.41555134634697 A434.2253804929802 434.2253804929802 0 0 0 -423.33844362037917 -96.62423721483388 A434.2253804929802 434.2253804929802 0 0 0 -431.4950624414135 -48.61781723765599 A434.2253804929802 434.2253804929802 0 0 0 -433.5059069149949 -24.98619086778156 A25 25 0 0 1 -483.5801631960459 -24.98889507075339 A484.2253804929802 484.2253804929802 0 0 1 -481.1806729360756 -54.216041042821374 A484.2253804929802 484.2253804929802 0 0 1 -472.08483922947033 -107.7502839126496 A484.2253804929802 484.2253804929802 0 0 1 -457.0522647595506 -159.9295044441053 A484.2253804929802 484.2253804929802 0 0 1 -436.2719928723785 -210.09751866391647 A484.2253804929802 484.2253804929802 0 0 1 -410.00534754392993 -257.62343468510915 A484.2253804929802 484.2253804929802 0 0 1 -378.58264707947257 -301.909586538538 A484.2253804929802 484.2253804929802 0 0 1 -342.39905016922256 -342.39905016922245 A484.2253804929802 484.2253804929802 0 0 1 -301.9095865385382 -378.58264707947245 A484.2253804929802 484.2253804929802 0 0 1 -257.6234346851093 -410.0053475439298 A484.2253804929802 484.2253804929802 0 0 1 -232.33178587260832 -424.8483969450937 A25 25 0 0 1 -199.25042518597766 -413.747771174818 L-177.55623823009975 -368.69932777969706 A25 25 0 0 0 -143.84804882215812 -356.28202573948835 A384.2253804929802 384.2253804929802 0 0 1 -126.9015982485887 -362.6639317287138 A384.2253804929802 384.2253804929802 0 0 1 -109.6732763733805 -368.24029581850965 A25 25 0 0 0 -91.06121386592616 -398.9652458158335 L-102.18726056374189 -447.7116414249247 A25 25 0 0 1 -83.24433825807104 -477.0163511469469 A484.2253804929802 484.2253804929802 0 0 1 -54.21604104282152 -481.1806729360756 A484.2253804929802 484.2253804929802 0 0 1 -0.00000000000008895075934299561 -484.2253804929802 A484.2253804929802 484.2253804929802 0 0 1 54.21604104282135 -481.1806729360756 A484.2253804929802 484.2253804929802 0 0 1 107.75028391264956 -472.08483922947033 A484.2253804929802 484.2253804929802 0 0 1 159.92950444410528 -457.0522647595506 A484.2253804929802 484.2253804929802 0 0 1 210.09751866391647 -436.2719928723786 A484.2253804929802 484.2253804929802 0 0 1 257.6234346851091 -410.00534754393 A484.2253804929802 484.2253804929802 0 0 1 301.909586538538 -378.58264707947257 A484.2253804929802 484.2253804929802 0 0 1 342.39905016922245 -342.39905016922256 A484.2253804929802 484.2253804929802 0 0 1 362.49787464736363 -321.04440501232176 A25 25 0 0 0 398.1284341411732 -317.49683158500653 L476.31158238797616 -379.8458117708799 A25 25 0 0 1 511.0553986134841 -375.5851605288451 A634.2253804929802 634.2253804929802 0 0 1 537.0139774281724 -337.42824616240983 A634.2253804929802 634.2253804929802 0 0 1 571.4173230577413 -275.18007953155035 A634.2253804929802 634.2253804929802 0 0 1 598.6347643058057 -209.47136373738053 A634.2253804929802 634.2253804929802 0 0 1 618.3240260567438 -141.12842400609696 A634.2253804929802 634.2253804929802 0 0 1 630.237504420062 -71.01071245831777 A634.2253804929802 634.2253804929802 0 0 1 634.2253804929802 0 A634.2253804929802 634.2253804929802 0 0 1 630.237504420062 71.01071245831761 A634.2253804929802 634.2253804929802 0 0 1 618.3240260567438 141.12842400609682 A634.2253804929802 634.2253804929802 0 0 1 598.6347643058058 209.4713637373804 A634.2253804929802 634.2253804929802 0 0 1 571.4173230577414 275.18007953155023 A634.2253804929802 634.2253804929802 0 0 1 549.8941852648663 316.00350990670074 A25 25 0 0 1 515.8458724474654 324.12744424952626 L473.5096624860512 297.52584042375946 A25 25 0 0 0 438.55040106050757 305.0742579971923 A534.2253804929802 534.2253804929802 0 0 1 417.674221202874 333.0840766314747 A534.2253804929802 534.2253804929802 0 0 1 377.7543892285499 377.7543892285498 A534.2253804929802 534.2253804929802 0 0 1 333.0840766314748 417.6742212028739 A534.2253804929802 534.2253804929802 0 0 1 284.2250385108761 452.34155750534404 A534.2253804929802 534.2253804929802 0 0 1 231.79170561979447 481.3204362674995 A534.2253804929802 534.2253804929802 0 0 1 176.44345754186372 504.246431274969 A534.2253804929802 534.2253804929802 0 0 1 118.8763306104654 520.8312348385615 A534.2253804929802 534.2253804929802 0 0 1 84.58252105026324 527.4870181299738 A25 25 0 0 1 57.01515294540416 506.02347818340667 L51.416929140238764 456.33786768874455 A25 25 0 0 0 23.70817881138915 433.5776785326023 A434.2253804929802 434.2253804929802 0 0 1 0.00000000000002658863611646349 434.2253804929802 A434.2253804929802 434.2253804929802 0 0 1 -48.61781723765602 431.4950624414135 A434.2253804929802 434.2253804929802 0 0 1 -96.62423721483391 423.33844362037917 A434.2253804929802 434.2253804929802 0 0 1 -143.415551346347 409.85809824413224 A434.2253804929802 434.2253804929802 0 0 1 -188.40333170803862 391.22354947725756 A434.2253804929802 434.2253804929802 0 0 1 -231.02183085934234 367.6691375825157 A434.2253804929802 434.2253804929802 0 0 1 -270.73509644560136 339.4910729560711 A434.2253804929802 434.2253804929802 0 0 1 -307.04371110989507 307.0437111098951 A434.2253804929802 434.2253804929802 0 0 1 -339.491072956071 270.7350964456014 A434.2253804929802 434.2253804929802 0 0 1 -367.66913758251565 231.02183085934243 A434.2253804929802 434.2253804929802 0 0 1 -379.73422426219634 210.60294392116506 A25 25 0 0 0 -424.84839694509367 232.33178587260844 A484.2253804929802 484.2253804929802 0 0 0 -410.0053475439299 257.62343468510926 A484.2253804929802 484.2253804929802 0 0 0 -378.58264707947245 301.9095865385381 A484.2253804929802 484.2253804929802 0 0 0 -342.39905016922245 342.3990501692225 A484.2253804929802 484.2253804929802 0 0 0 -301.909586538538 378.58264707947257 A484.2253804929802 484.2253804929802 0 0 0 -257.62343468510915 410.00534754392993 A484.2253804929802 484.2253804929802 0 0 0 -210.0975186639165 436.2719928723785 A484.2253804929802 484.2253804929802 0 0 0 -159.92950444410533 457.0522647595506 A484.2253804929802 484.2253804929802 0 0 0 -107.75028391264964 472.08483922947033 A484.2253804929802 484.2253804929802 0 0 0 -54.21604104282141 481.1806729360756 A484.2253804929802 484.2253804929802 0 0 0 -24.98889507075342 483.5801631960459 A25 25 0 0 1 0.000000000000031181061613266063 509.2253804929802 L0.00000000000003424267861113445 559.2253804929802 A25 25 0 0 0 24.9923709901984 583.6905658004555 A584.2253804929802 584.2253804929802 0 0 0 65.41248865315225 580.5518939253999 A584.2253804929802 584.2253804929802 0 0 0 130.00237730828113 569.5776304476527 A584.2253804929802 584.2253804929802 0 0 0 192.95741063962208 551.4405977903874 A584.2253804929802 584.2253804929802 0 0 0 253.48589257567238 526.3688796626204 A584.2253804929802 584.2253804929802 0 0 0 310.8266423366429 494.67776746675827 A584.2253804929802 584.2253804929802 0 0 0 364.2585667244115 456.76579532627545 A584.2253804929802 584.2253804929802 0 0 0 413.10972828787726 413.1097282878772 A584.2253804929802 584.2253804929802 0 0 0 440.76517192571447 383.4649376793957 A25 25 0 0 1 476.3115823879762 379.8458117708797 L515.4031565113777 411.0203018638164 A25 25 0 0 0 550.1756816669293 406.7813793834387 A684.2253804929802 684.2253804929802 0 0 0 579.3501873895867 364.0298499881765 A684.2253804929802 684.2253804929802 0 0 0 616.4657664528623 296.87426648742814 A684.2253804929802 684.2253804929802 0 0 0 645.8289308212242 225.98531683513875 A684.2253804929802 684.2253804929802 0 0 0 667.070421665835 152.25447070391255 A684.2253804929802 684.2253804929802 0 0 0 679.9231149147241 76.608936263483 A684.2253804929802 684.2253804929802 0 0 0 684.2253804929802 0 A684.2253804929802 684.2253804929802 0 0 0 679.9231149147241 -76.60893626348317 A684.2253804929802 684.2253804929802 0 0 0 667.0704216658349 -152.25447070391272 A684.2253804929802 684.2253804929802 0 0 0 645.828930821224 -225.98531683513892 A684.2253804929802 684.2253804929802 0 0 0 616.4657664528623 -296.87426648742826 A684.2253804929802 684.2253804929802 0 0 0 579.3501873895866 -364.0298499881767 A684.2253804929802 684.2253804929802 0 0 0 534.9489435730784 -426.6075469102849 A684.2253804929802 684.2253804929802 0 0 0 501.1712284275178 -465.82375541315656 A25 25 0 0 0 466.14273687686824 -466.1427368768684 L395.4320587582135 -395.4320587582136 A25 25 0 0 1 359.6696180768572 -395.0120542405221 A534.2253804929802 534.2253804929802 0 0 0 333.08407663147466 -417.67422120287404 A534.2253804929802 534.2253804929802 0 0 0 284.22503851087595 -452.34155750534416 A534.2253804929802 534.2253804929802 0 0 0 231.79170561979436 -481.32043626749953 A534.2253804929802 534.2253804929802 0 0 0 176.44345754186364 -504.246431274969 A534.2253804929802 534.2253804929802 0 0 0 118.87633061046527 -520.8312348385615 A534.2253804929802 534.2253804929802 0 0 0 59.814264847986735 -530.8662834307378 A534.2253804929802 534.2253804929802 0 0 0 -0.00000000000009813561033660076 -534.2253804929802 A534.2253804929802 534.2253804929802 0 0 0 -59.81426484798693 -530.8662834307378 A534.2253804929802 534.2253804929802 0 0 0 -118.87633061046547 -520.8312348385615 A534.2253804929802 534.2253804929802 0 0 0 -176.44345754186378 -504.2464312749689 A534.2253804929802 534.2253804929802 0 0 0 -231.79170561979453 -481.3204362674994 A534.2253804929802 534.2253804929802 0 0 0 -284.2250385108762 -452.341557505344 A534.2253804929802 534.2253804929802 0 0 0 -333.08407663147483 -417.6742212028739 A534.2253804929802 534.2253804929802 0 0 0 -377.75438922854994 -377.7543892285498 A534.2253804929802 534.2253804929802 0 0 0 -417.67422120287404 -333.08407663147466 A534.2253804929802 534.2253804929802 0 0 0 -452.3415575053441 -284.225038510876 A534.2253804929802 534.2253804929802 0 0 0 -481.3204362674995 -231.79170561979439 A534.2253804929802 534.2253804929802 0 0 0 -504.246431274969 -176.44345754186367 A534.2253804929802 534.2253804929802 0 0 0 -514.7000528190434 -143.11049154741727 A25 25 0 0 1 -563.4948989415437 -154.2491299133544 A584.2253804929802 584.2253804929802 0 0 1 -551.4405977903874 -192.95741063962203 A584.2253804929802 584.2253804929802 0 0 1 -526.3688796626204 -253.4858925756723 A584.2253804929802 584.2253804929802 0 0 1 -494.6777674667583 -310.8266423366428 A584.2253804929802 584.2253804929802 0 0 1 -456.76579532627557 -364.25856672441137 A584.2253804929802 584.2253804929802 0 0 1 -413.1097282878773 -413.1097282878772 A584.2253804929802 584.2253804929802 0 0 1 -364.25856672441154 -456.76579532627545 A584.2253804929802 584.2253804929802 0 0 1 -310.826642336643 -494.6777674667582 A584.2253804929802 584.2253804929802 0 0 1 -253.48589257567244 -526.3688796626204 A584.2253804929802 584.2253804929802 0 0 1 -192.95741063962214 -551.4405977903873 A584.2253804929802 584.2253804929802 0 0 1 -130.0023773082812 -569.5776304476526 A584.2253804929802 584.2253804929802 0 0 1 -65.41248865315232 -580.5518939253999 A584.2253804929802 584.2253804929802 0 0 1 -0.00000000000010732046133020591 -584.2253804929802 A584.2253804929802 584.2253804929802 0 0 1 65.41248865315211 -580.5518939253999 A584.2253804929802 584.2253804929802 0 0 1 130.00237730828098 -569.5776304476527 A584.2253804929802 584.2253804929802 0 0 1 192.957410639622 -551.4405977903874 A584.2253804929802 584.2253804929802 0 0 1 253.48589257567227 -526.3688796626205 A584.2253804929802 584.2253804929802 0 0 1 310.82664233664275 -494.6777674667584 A584.2253804929802 584.2253804929802 0 0 1 344.3852927560802 -471.9301487990319 A25 25 0 0 0 379.84581177087966 -476.31158238797633 L442.194791956753 -554.4947306347793 A25 25 0 0 1 477.05870425372433 -558.1235544714262 A734.2253804929802 734.2253804929802 0 0 1 519.1757454658593 -519.1757454658594 A734.2253804929802 734.2253804929802 0 0 1 574.0405176964799 -457.7820370032216 A734.2253804929802 734.2253804929802 0 0 1 621.6863973510008 -390.6314538139435 A734.2253804929802 734.2253804929802 0 0 1 661.5142098479832 -318.56845344330617 A734.2253804929802 734.2253804929802 0 0 1 693.0230973366424 -242.49926993289728 A734.2253804929802 734.2253804929802 0 0 1 715.8168172749262 -163.38051740172844 A734.2253804929802 734.2253804929802 0 0 1 729.6087254093862 -82.20716006864858 A734.2253804929802 734.2253804929802 0 0 1 734.2253804929802 0 A734.2253804929802 734.2253804929802 0 0 1 729.6087254093862 82.2071600686484 A734.2253804929802 734.2253804929802 0 0 1 715.8168172749263 163.38051740172824 A734.2253804929802 734.2253804929802 0 0 1 693.0230973366425 242.4992699328971 A734.2253804929802 734.2253804929802 0 0 1 661.5142098479834 318.56845344330605 A734.2253804929802 734.2253804929802 0 0 1 621.6863973510009 390.6314538139434 A734.2253804929802 734.2253804929802 0 0 1 574.0405176964799 457.78203700322143 A734.2253804929802 734.2253804929802 0 0 1 536.5490706300847 501.2005628149813 A25 25 0 0 1 501.4980759361957 501.4980759361956 L466.1427368768683 466.14273687686824 A25 25 0 0 0 430.44360983775266 465.78979380328855 A634.2253804929802 634.2253804929802 0 0 1 395.43305681734813 495.8573694496769 A634.2253804929802 634.2253804929802 0 0 1 337.4282461624098 537.0139774281724 A634.2253804929802 634.2253804929802 0 0 1 275.1800795315503 571.4173230577414 A634.2253804929802 634.2253804929802 0 0 1 209.47136373738044 598.6347643058058 A634.2253804929802 634.2253804929802 0 0 1 141.12842400609685 618.3240260567438 A634.2253804929802 634.2253804929802 0 0 1 71.01071245831766 630.237504420062 A634.2253804929802 634.2253804929802 0 0 1 0.00000000000003883510410793702 634.2253804929802 A634.2253804929802 634.2253804929802 0 0 1 -46.11917935210759 632.5463260168015 A25 25 0 0 1 -68.21160055573489 605.394699172731 L-62.61337675056949 555.7090886780688 A25 25 0 0 0 -84.58252105026318 527.4870181299738 A534.2253804929802 534.2253804929802 0 0 1 -118.87633061046535 520.8312348385615 A534.2253804929802 534.2253804929802 0 0 1 -176.4434575418637 504.246431274969 A534.2253804929802 534.2253804929802 0 0 1 -231.7917056197944 481.3204362674995 A534.2253804929802 534.2253804929802 0 0 1 -284.225038510876 452.3415575053441 A534.2253804929802 534.2253804929802 0 0 1 -333.08407663147466 417.67422120287404 A534.2253804929802 534.2253804929802 0 0 1 -377.7543892285498 377.7543892285499 A534.2253804929802 534.2253804929802 0 0 1 -417.6742212028739 333.0840766314748 A534.2253804929802 534.2253804929802 0 0 1 -452.34155750534404 284.2250385108761 A534.2253804929802 534.2253804929802 0 0 1 -481.3204362674994 231.7917056197945 A534.2253804929802 534.2253804929802 0 0 1 -495.4404357079868 199.83876457872142 A25 25 0 0 1 -480.6493480172598 168.18648099298457 L-433.4551815018414 151.6725278952262 A24.359986881410343 24.359986881410343 0 0 0 -447.7116414249247 102.18726056374184 L-496.45803703401594 113.31330726155757 A25 25 0 0 1 -525.822039077234 94.38188588669594 A534.2253804929802 534.2253804929802 0 0 1 -530.8662834307378 59.8142648479869 A534.2253804929802 534.2253804929802 0 0 1 -533.6405281328229 24.990876274980273 A25 25 0 0 0 -583.6905658004555 24.99237099019831 A584.2253804929802 584.2253804929802 0 0 0 -580.5518939253999 65.4124886531523 A584.2253804929802 584.2253804929802 0 0 0 -569.5776304476527 130.00237730828115 A584.2253804929802 584.2253804929802 0 0 0 -551.4405977903874 192.9574106396221 A584.2253804929802 584.2253804929802 0 0 0 -526.3688796626204 253.4858925756724 A584.2253804929802 584.2253804929802 0 0 0 -494.67776746675827 310.8266423366429 A584.2253804929802 584.2253804929802 0 0 0 -456.76579532627545 364.2585667244115 A584.2253804929802 584.2253804929802 0 0 0 -413.1097282878772 413.10972828787726 A584.2253804929802 584.2253804929802 0 0 0 -364.25856672441137 456.76579532627557 A584.2253804929802 584.2253804929802 0 0 0 -310.8266423366428 494.6777674667583 A584.2253804929802 584.2253804929802 0 0 0 -253.48589257567232 526.3688796626204 A584.2253804929802 584.2253804929802 0 0 0 -192.95741063962205 551.4405977903874 A584.2253804929802 584.2253804929802 0 0 0 -154.24912991335455 563.4948989415437 A25 25 0 0 1 -135.56540065718892 593.9508282521983 L-146.69144735500464 642.6972238612894 A25 25 0 0 0 -127.78507693368255 672.1869869491794 A684.2253804929802 684.2253804929802 0 0 0 -76.60893626348297 679.9231149147241 A684.2253804929802 684.2253804929802 0 0 0 0.0000000000000418967211058054 684.2253804929802 A684.2253804929802 684.2253804929802 0 0 0 76.60893626348305 679.9231149147241 A684.2253804929802 684.2253804929802 0 0 0 152.25447070391257 667.070421665835 A684.2253804929802 684.2253804929802 0 0 0 225.9853168351388 645.8289308212242 A684.2253804929802 684.2253804929802 0 0 0 296.8742664874282 616.4657664528623 A684.2253804929802 684.2253804929802 0 0 0 364.0298499881766 579.3501873895867 A684.2253804929802 684.2253804929802 0 0 0 406.7813793834388 550.1756816669293 A25 25 0 0 1 442.1947919567532 554.4947306347791 L473.36928204968984 593.5863047581806 A25 25 0 0 0 508.25057511262526 597.2359670239606 A784.2253804929802 784.2253804929802 0 0 0 554.5310845251868 554.5310845251867 A784.2253804929802 784.2253804929802 0 0 0 613.1320918198815 488.9565270961581 A784.2253804929802 784.2253804929802 0 0 0 664.0226073124151 417.2330576397102 A784.2253804929802 784.2253804929802 0 0 0 706.5626532431043 340.26264039918397 A784.2253804929802 784.2253804929802 0 0 0 740.2172638520609 259.01322303065547 A784.2253804929802 784.2253804929802 0 0 0 764.5632128840174 174.50656409954397 A784.2253804929802 784.2253804929802 0 0 0 779.2943359040484 87.8053838738138 A784.2253804929802 784.2253804929802 0 0 0 784.2253804929802 0 A784.2253804929802 784.2253804929802 0 0 0 779.2943359040484 -87.805383873814 A784.2253804929802 784.2253804929802 0 0 0 764.5632128840174 -174.50656409954416 A784.2253804929802 784.2253804929802 0 0 0 740.2172638520608 -259.01322303065564 A784.2253804929802 784.2253804929802 0 0 0 706.5626532431041 -340.26264039918414 A784.2253804929802 784.2253804929802 0 0 0 664.0226073124151 -417.23305763971035 A784.2253804929802 784.2253804929802 0 0 0 613.1320918198813 -488.95652709615825 A784.2253804929802 784.2253804929802 0 0 0 554.5310845251867 -554.5310845251869 A784.2253804929802 784.2253804929802 0 0 0 488.956527096158 -613.1320918198816 A784.2253804929802 784.2253804929802 0 0 0 438.18559001678756 -650.386681990798 A25 25 0 0 0 403.9322557268266 -642.8545023317082 L350.72904807529295 -558.1820824088798 A25 25 0 0 1 316.00350990670074 -549.8941852648663 A634.2253804929802 634.2253804929802 0 0 0 275.1800795315502 -571.4173230577414 A634.2253804929802 634.2253804929802 0 0 0 209.47136373738033 -598.6347643058058 A634.2253804929802 634.2253804929802 0 0 0 141.12842400609668 -618.3240260567438 A634.2253804929802 634.2253804929802 0 0 0 71.0107124583175 -630.237504420062 A634.2253804929802 634.2253804929802 0 0 0 -0.00000000000011650531232381106 -634.2253804929802 A634.2253804929802 634.2253804929802 0 0 0 -71.01071245831773 -630.237504420062 A634.2253804929802 634.2253804929802 0 0 0 -141.12842400609694 -618.3240260567438 A634.2253804929802 634.2253804929802 0 0 0 -209.4713637373805 -598.6347643058057 A634.2253804929802 634.2253804929802 0 0 0 -275.18007953155035 -571.4173230577413 A634.2253804929802 634.2253804929802 0 0 0 -337.42824616240983 -537.0139774281724 A634.2253804929802 634.2253804929802 0 0 0 -375.5851605288451 -511.0553986134841 A25 25 0 0 1 -406.7813793834389 -550.1756816669293 A684.2253804929802 684.2253804929802 0 0 1 -364.0298499881767 -579.3501873895866 A684.2253804929802 684.2253804929802 0 0 1 -296.87426648742826 -616.4657664528623 A684.2253804929802 684.2253804929802 0 0 1 -225.98531683513886 -645.828930821224 A684.2253804929802 684.2253804929802 0 0 1 -152.25447070391266 -667.0704216658349 A684.2253804929802 684.2253804929802 0 0 1 -76.60893626348313 -679.9231149147241 A684.2253804929802 684.2253804929802 0 0 1 -0.0000000000001256901633174162 -684.2253804929802 A684.2253804929802 684.2253804929802 0 0 1 76.60893626348289 -679.9231149147241 A684.2253804929802 684.2253804929802 0 0 1 152.2544707039124 -667.070421665835 A684.2253804929802 684.2253804929802 0 0 1 225.9853168351387 -645.8289308212242 A684.2253804929802 684.2253804929802 0 0 1 274.15691439216107 -626.8990011171917 A25 25 0 0 0 307.721359965367 -638.989988150423 L351.1097338771228 -729.0868749406649 A25 25 0 0 1 384.3151575377573 -740.428149887203 A834.2253804929802 834.2253804929802 0 0 1 443.8346614654768 -706.3588172738295 A834.2253804929802 834.2253804929802 0 0 1 520.1310171890947 -652.2236659432831 A834.2253804929802 834.2253804929802 0 0 1 589.8864235845141 -589.8864235845142 A834.2253804929802 834.2253804929802 0 0 1 652.2236659432829 -520.131017189095 A834.2253804929802 834.2253804929802 0 0 1 706.3588172738292 -443.8346614654772 A834.2253804929802 834.2253804929802 0 0 1 751.6110966382251 -361.95682735506205 A834.2253804929802 834.2253804929802 0 0 1 787.4114303674792 -275.527176128414 A834.2253804929802 834.2253804929802 0 0 1 813.3096084931085 -185.63261079735992 A834.2253804929802 834.2253804929802 0 0 1 828.9799463987105 -93.4036076789794 A834.2253804929802 834.2253804929802 0 0 1 834.2253804929802 0 A834.2253804929802 834.2253804929802 0 0 1 828.9799463987105 93.40360767897918 A834.2253804929802 834.2253804929802 0 0 1 813.3096084931086 185.6326107973597 A834.2253804929802 834.2253804929802 0 0 1 787.4114303674793 275.5271761284138 A834.2253804929802 834.2253804929802 0 0 1 751.6110966382253 361.9568273550619 A834.2253804929802 834.2253804929802 0 0 1 706.3588172738293 443.834661465477 A834.2253804929802 834.2253804929802 0 0 1 652.223665943283 520.1310171890948 A834.2253804929802 834.2253804929802 0 0 1 589.8864235845141 589.8864235845141 A834.2253804929802 834.2253804929802 0 0 1 539.4403375985606 636.3459025013113 A25 25 0 0 0 570.6283533393012 675.4537777473994 A884.2253804929802 884.2253804929802 0 0 0 625.2417626438415 625.2417626438414 A884.2253804929802 884.2253804929802 0 0 0 691.3152400666844 551.3055072820315 A884.2253804929802 884.2253804929802 0 0 0 748.6950272352435 470.43626529124384 A884.2253804929802 884.2253804929802 0 0 0 796.6595400333462 383.6510143109398 A884.2253804929802 884.2253804929802 0 0 0 834.6055968828977 292.0411292261722 A884.2253804929802 884.2253804929802 0 0 0 862.0560041021998 196.7586574951754 A884.2253804929802 884.2253804929802 0 0 0 878.6655568933727 99.00183148414457 A884.2253804929802 884.2253804929802 0 0 0 884.2253804929802 0 A884.2253804929802 884.2253804929802 0 0 0 878.6655568933727 -99.0018314841448 A884.2253804929802 884.2253804929802 0 0 0 862.0560041021997 -196.75865749517564 A884.2253804929802 884.2253804929802 0 0 0 834.6055968828975 -292.04112922617236 A884.2253804929802 884.2253804929802 0 0 0 796.659540033346 -383.65101431093996 A884.2253804929802 884.2253804929802 0 0 0 748.6950272352434 -470.436265291244 A884.2253804929802 884.2253804929802 0 0 0 691.3152400666843 -551.3055072820316 A884.2253804929802 884.2253804929802 0 0 0 625.2417626438414 -625.2417626438416 A884.2253804929802 884.2253804929802 0 0 0 551.3055072820314 -691.3152400666845 A884.2253804929802 884.2253804929802 0 0 0 470.4362652912436 -748.6950272352437 A884.2253804929802 884.2253804929802 0 0 0 383.6510143109396 -796.6595400333463 A884.2253804929802 884.2253804929802 0 0 0 315.51835040979427 -826.0161584755094 A25 25 0 0 0 283.78415267729287 -811.0085136251885 L250.7562464817762 -716.6201805943517 A25 25 0 0 1 218.76618668643695 -700.8767829816711 A734.2253804929802 734.2253804929802 0 0 0 163.3805174017281 -715.8168172749263 A734.2253804929802 734.2253804929802 0 0 0 82.20716006864826 -729.6087254093862 A734.2253804929802 734.2253804929802 0 0 0 -0.00000000000013487501431102135 -734.2253804929802 A734.2253804929802 734.2253804929802 0 0 0 -82.20716006864853 -729.6087254093862 A734.2253804929802 734.2253804929802 0 0 0 -163.38051740172838 -715.8168172749262 A734.2253804929802 734.2253804929802 0 0 0 -242.49926993289722 -693.0230973366424 A734.2253804929802 734.2253804929802 0 0 0 -318.56845344330617 -661.5142098479832 A734.2253804929802 734.2253804929802 0 0 0 -390.6314538139435 -621.6863973510008 A734.2253804929802 734.2253804929802 0 0 0 -457.7820370032216 -574.0405176964799 A734.2253804929802 734.2253804929802 0 0 0 -501.20056281498137 -536.5490706300845 A25 25 0 0 0 -501.4980759361958 -501.4980759361956 L-466.1427368768684 -466.14273687686824 A25 25 0 0 1 -465.78979380328855 -430.44360983775266 L-479.88898100375104 -414.6666120784829 A25 25 0 0 1 -515.4031565113778 -411.02030186381637 L-593.5863047581807 -473.3692820496897 A25 25 0 0 1 -597.2359670239606 -508.2505751126251"/>
</svg>


